<svg version="1" xmlns="http://www.w3.org/2000/svg" width="2666.667" height="2666.667" viewBox="0 0 2000.000000 2000.000000"><path d="M1460.6 367.7c-.1.1-4.9.5-10.6.8-12.9.7-19.5 1.3-36.2 3.1-5.4.5-6.7.7-14.8 1.9-10.1 1.5-9.5 1.4-26.5 4.5-15.2 2.8-35.6 7.5-46 10.7-40.5 12.3-70 24.8-101.5 43.1-14.9 8.6-39.5 25.4-46.6 31.7-.6.5-2.9 2.3-5 4-8.5 6.5-21.5 18.5-33.9 30.9-84.3 85-136.6 209.4-155 368.6-.3 2.5-.7 6.1-.9 8-.4 3.1-.8 6.7-2.1 21.5-1.2 12.6-1.6 17.8-2 24.5-.2 4.1-.7 12-1 17.5-1.4 24-1.7 37.3-1.5 74.5 0 21.7.2 42.6.4 46.5.2 3.8.7 14 1 22.5.4 8.5.9 16.6 1.1 18 .2 1.4.7 6.8 1 12 .3 5.2.8 11.1 1 13 .5 3.9 1.2 10.7 2 19 .3 3 .7 7.1 1 9 .2 1.9.9 7.2 1.5 11.7.6 4.6 1.3 9.5 1.4 11 .2 1.6.7 4.4 1 6.3.4 1.9.8 4.8 1 6.5 1 7.8 1.8 13.3 2.6 16.5.5 1.9 1.2 5.5 1.5 8 .3 2.5.8 5.2 1 6 .2.8.7 3.1 1 5 .3 1.9.8 4.2 1 5 .2.8.7 3.1 1 5 .8 4.8 4.2 19.6 7.2 31 1.3 5.2 2.6 10.5 2.9 11.7.9 4.5 9.7 33.4 14 46.3 30.2 89 78.9 165.9 138.8 219.2 2.7 2.3 6.1 5.3 7.5 6.6 10.5 9.4 43.1 33.1 51.1 37.2 1.4.7 2.7 1.6 3 1.9 2.6 3.1 43.5 23.5 61.5 30.6 28.2 11.2 64.7 21.4 92.5 25.9 11.2 1.9 30.3 4.6 35.5 5.1 3.3.3 8 .7 10.5 1 14.5 1.5 30 2 58 2 31 0 45-.7 63.5-3 1.7-.2 5.7-.7 9-1 3.3-.4 6.7-.8 7.5-1 .8-.2 3.5-.7 6-1 16-2.1 45.1-8.6 66.5-15 6.6-2 12.5-3.7 13-3.8 2-.5 22.2-7.9 31-11.4 16.3-6.5 38.9-17.2 54.9-26.2 6-3.4 11.3-6.1 11.8-6.1.4 0 .8-.5.8-1 0-.6.4-1 1-1 3.5 0 42.5-27.1 62.5-43.5l10-8.2V962.5h-190.7c-126.8 0-190.9.3-191.1 1-.2.9-.1 203.2.2 204.5.1.3 37.7.5 83.8.5h83.6V1285c-.1 64.1-.2 117.4-.2 118.5-.1 2.1-12.3 10.4-21.1 14.3-12.3 5.4-34.7 11.3-48 12.7-2.5.2-7.2.8-10.5 1.2-8 1-52.2 1-61 0-16.9-1.9-35.1-5.9-49.8-10.8-17.7-5.9-43-19.5-58-31.1-43.7-33.7-78.4-91.3-98.2-162.8-8.1-29.1-16.3-72.6-18.9-100.5-.4-3.3-.9-8.3-1.2-11-.8-7-1.6-16.7-2.9-35-2.4-35-2.4-107.2 0-140.9.3-3.4.7-9.5 1-13.6.5-7.5.9-12.7 2-23 1.5-13.6 1.5-13.8 3.5-29 1-7.3 4.8-30.7 6.5-39.3 2.2-11.2 6-27.1 9-37.7 1.9-6.9 3.7-13.5 4-14.6 1-4.4 8.8-26.3 13.2-36.9 26.5-64.5 66.6-109.6 119.6-134.5 24-11.2 52.5-19.1 78.6-21.6 3.1-.3 7.2-.7 9.1-1 1.9-.3 12.7-.7 24-.8 40.2-.5 72.8 4.2 109.3 16 34 11 71.5 31.6 98.7 54 20.9 17.3 36.9 33.3 53.4 53.4 4.3 5.2 7.9 9.6 8 9.7 0 .1.1-60.9.1-135.5V449.6l-6-3.8c-12.1-7.7-57.5-31.8-60-31.8-.2 0-3-1.2-6.2-2.6-9.8-4.4-11.4-5.1-24.2-9.9-31.9-11.8-69-22.1-94.6-26.1-1.6-.3-6.8-1.1-11.5-1.9-12.3-2.1-29.1-4-44.5-5.1-8.2-.6-65.3-1.2-65.9-.7zM320.3 389.8l-2.2.3.1 107.7v107.7H617.5v323c0 177.6-.3 327.5-.8 333-1.1 15.2-1.6 20.5-2.7 26.5-.5 3-1.2 7.3-1.6 9.5-1 7.5-5.6 24.8-9.1 34.9-13.5 38.9-35.8 64.7-70.1 81.2-8.4 4.1-25.7 10.4-32.2 11.8-8.4 1.9-23 4.6-26.5 5-2.2.3-6.9.8-10.5 1.3-12.5 1.5-72 .6-74.9-1.2-.3-.1-3.3-.6-6.6-.9-3.3-.4-6.7-.8-7.5-1.1-.8-.2-3.1-.6-5-.9-6.1-1-9.3-1.6-18-3.7-4.7-1.1-9.3-2.2-10.4-2.4-17.7-3.7-58.2-19-80.1-30.3-3.8-1.9-7.8-3.9-8.7-4.4-7.4-3.4-29.2-16-31.4-17.9-1.1-1.1-2.4-1.9-2.7-1.9-.7 0-20.8-13.2-23.2-15.2-.5-.5-4.4-3.3-8.5-6.4-8.5-6.2-10.9-8.1-23-17.8-4.7-3.8-8.9-7.4-9.5-8-.5-.6-3-2.9-5.5-5-2.5-2.2-10.5-9.6-17.8-16.5-7.3-6.9-13.6-12.7-14-12.9-.4-.1-.7 63.3-.7 141v141.2l3.5 1.8c6.8 3.5 24.6 11.6 34.5 15.8 5.5 2.3 11.8 5 14 6 18 8.1 73.3 27.7 91 32.3 1.1.3 6.7 1.9 12.5 3.5s13.4 3.7 17 4.6c14 3.3 27.8 6.5 33 7.5 3 .6 6.6 1.4 8 1.6 3.9.8 37 6.4 41.5 6.9 6 .8 10.2 1.3 18 2.1 3.9.4 8.2.9 9.7 1 23.5 2.7 99.1 2.7 122.8 0 1.9-.2 6.7-.7 10.5-1 3.9-.3 8.1-.8 9.5-1 1.4-.2 5.6-.6 9.5-1 3.8-.4 7.2-.8 7.5-1 .3-.1 3.2-.6 6.5-1 8.6-.9 31-5.1 43.4-8.1 5.8-1.4 11.6-2.7 12.8-3 4.8-.9 28.8-8.5 39-12.2 60.3-22.3 104.4-55.6 135.8-102.7 9.7-14.5 16.6-27.4 26.5-49 9.7-21.2 23.3-67.6 27.6-94.4.8-4.6 1.2-7 1.8-8.9.3-.9.7-4 1.1-6.7.6-4.9 1-7.9 2-14 .3-1.7.7-5.5 1.1-8.5.3-3 .7-6.6.9-7.9.2-1.2.7-6 1-10.5.4-4.4.8-9.2 1.1-10.6.2-1.4.7-7.2 1-13 .4-5.8.9-12.8 1.1-15.5.3-2.8.6-204.2.8-447.8l.3-442.7-2.1-.1c-6.5-.3-538.6-.3-540.4-.1z"/></svg>