<svg class="icon-github" xmlns="http://www.w3.org/2000/svg" width="24" height="24">
    <path fill="currentColor" fill-rule="evenodd" d="M11.294.279C5.082.279 0 5.302 0 11.44c0 4.883 3.247 9.069 7.765 10.603.564.14.706-.279.706-.558v-1.953c-3.106.698-3.812-1.395-3.812-1.395-.565-1.256-1.27-1.674-1.27-1.674-.989-.698.14-.698.14-.698 1.13.14 1.695 1.116 1.695 1.116.988 1.814 2.682 1.256 3.247.977.14-.698.423-1.256.705-1.535-2.54-.279-5.082-1.255-5.082-5.58 0-1.256.424-2.233 1.13-2.93-.142-.28-.565-1.395.14-2.93 0 0 .989-.279 3.107 1.116.847-.279 1.835-.418 2.823-.418s1.977.14 2.824.418c2.117-1.395 3.106-1.116 3.106-1.116.564 1.535.282 2.65.14 2.93.707.837 1.13 1.814 1.13 2.93 0 4.325-2.682 5.162-5.223 5.44.423.559.847 1.256.847 2.233v3.07c0 .278.14.697.847.557 4.517-1.534 7.764-5.72 7.764-10.603C22.59 5.302 17.506.28 11.294.28Z"/>
</svg>
