<svg class="icon-twitter" xmlns="http://www.w3.org/2000/svg" width="24" height="24" viewBox="0 0 24 20">
    <path fill="currentColor" fill-rule="evenodd" d="M24 2.965c-.9.444-1.8.593-2.85.74 1.05-.592 1.8-1.481 2.1-2.667-.9.593-1.95.89-3.15 1.186-.9-.89-2.25-1.483-3.6-1.483-2.55 0-4.8 2.224-4.8 4.892 0 .445 0 .741.15 1.038-4.05-.149-7.8-2.076-10.2-5.04-.45.74-.6 1.482-.6 2.52 0 1.63.9 3.113 2.25 4.002-.75 0-1.5-.297-2.25-.593 0 2.372 1.65 4.299 3.9 4.744-.45.148-.9.148-1.35.148-.3 0-.6 0-.9-.148a4.853 4.853 0 0 0 4.65 3.409C5.7 17.047 3.6 17.788 1.2 17.788H0c2.25 1.334 4.8 2.224 7.5 2.224 9 0 13.95-7.412 13.95-13.786v-.593c1.05-.741 1.95-1.63 2.55-2.668Z"/>
</svg>
